<?xml version="1.0" encoding="utf-8"?>
<!-- Generator: Adobe Illustrator 16.0.0, SVG Export Plug-In . SVG Version: 6.00 Build 0)  -->
<!DOCTYPE svg PUBLIC "-//W3C//DTD SVG 1.1//EN" "http://www.w3.org/Graphics/SVG/1.1/DTD/svg11.dtd">
<svg version="1.1" id="Layer_1" xmlns="http://www.w3.org/2000/svg" xmlns:xlink="http://www.w3.org/1999/xlink" x="0px" y="0px"
	 width="1920px" height="1080px" viewBox="0 0 1920 1080" enable-background="new 0 0 1920 1080" xml:space="preserve">
<g>
	<g>
		<circle fill="#FFFFFF" cx="960" cy="540.135" r="466.425"/>
		<path d="M960,1007.91c-125.01,0-242.46-48.601-330.75-137.025S492.225,665.01,492.225,540.135s48.601-242.46,137.025-330.75
			C717.675,121.095,834.99,72.36,960,72.36s242.46,48.6,330.75,137.025c88.29,88.425,137.025,205.875,137.025,330.75
			s-48.601,242.46-137.025,330.75S1085.01,1007.91,960,1007.91z M960,75.06c-124.2,0-240.975,48.33-328.86,136.215
			c-87.885,87.75-136.215,204.66-136.215,328.86s48.33,240.976,136.215,328.86C719.025,956.88,835.8,1005.21,960,1005.21
			s240.975-48.33,328.86-136.215c87.885-87.885,136.215-204.66,136.215-328.86s-48.33-240.975-136.215-328.86
			C1200.975,123.39,1084.2,75.06,960,75.06z"/>
	</g>
	<g>
		<path d="M960,985.365c-118.936,0-230.715-46.305-314.82-130.41c-84.104-84.105-130.41-195.885-130.41-314.82
			c0-118.935,46.306-230.715,130.41-314.82C729.285,141.21,841.064,94.905,960,94.905s230.715,46.305,314.82,130.41
			c84.104,84.105,130.41,195.885,130.41,314.82c0,118.936-46.306,230.715-130.41,314.82
			C1190.715,939.06,1078.936,985.365,960,985.365z M960,97.605c-118.26,0-229.365,46.035-312.93,129.6
			c-83.565,83.564-129.601,194.67-129.601,312.93S563.505,769.5,647.07,853.065c83.564,83.564,194.67,129.6,312.93,129.6
			s229.365-46.035,312.93-129.6c83.565-83.565,129.601-194.671,129.601-312.931s-46.035-229.365-129.601-312.93
			C1189.365,143.64,1078.26,97.605,960,97.605z"/>
	</g>
	<g>
		<path d="M672.585,528.12l-23.22-73.98c0,0,2.16,14.04,2.16,21.466v52.515H620.34V363.69h29.43l23.221,73.979
			c0,0-2.16-14.04-2.16-21.465V363.69h31.185v164.43H672.585z"/>
		<path d="M715.245,528.12V363.69H779.1v29.43h-32.535v35.505h27.271v29.025h-27.27v40.904h32.939v29.431h-64.26V528.12z"/>
		<path d="M889.53,528.12h-31.455l-8.37-54.271c-0.271-1.755-0.811-14.444-0.811-14.444s-0.675,12.689-0.81,14.444l-8.37,54.271
			H808.26l-19.71-164.43h32.265l7.155,71.279c0.271,2.16,0.675,19.846,0.675,19.846s0.405-17.686,0.676-19.846l7.29-71.279h24.569
			l7.29,71.279c0.271,2.16,0.675,19.98,0.675,19.98s0.405-17.82,0.676-19.98l7.154-71.279h32.266L889.53,528.12z"/>
		<path d="M1013.865,471.69v56.43h-31.86v-56.565l-26.729-106.92v-0.81h32.535l10.125,56.564l10.395-56.564h32.265v0.81
			L1013.865,471.69z"/>
		<path d="M1109.85,528.12h-41.31c-12.96,0-18.226-5.805-18.226-18.765v-126.9c0-12.96,5.4-18.765,18.226-18.765h41.31
			c12.961,0,18.495,5.805,18.495,18.765v126.9C1128.345,522.315,1122.675,528.12,1109.85,528.12z M1096.62,391.905h-15.12v108h15.12
			V391.905z"/>
		<path d="M1190.311,528.12l-14.58-61.561v-31.185h10.529v-43.47h-13.5V528.12h-31.455V363.69h58.32
			c12.69,0,18.225,5.805,18.225,18.765v55.08c0,11.205-4.05,15.93-12.015,16.74l-1.485,0.27l17.686,72.09v1.485H1190.311
			L1190.311,528.12z"/>
		<path d="M1278.33,528.12l-15.12-72.495v72.495h-31.455V363.69h31.455v68.85l12.69-68.85h32.67v1.35l-19.17,78.3l22.41,83.43v1.351
			H1278.33L1278.33,528.12z"/>
		<path d="M660.84,738.315h-43.335v-189.54h43.335v74.385h18.9v-74.385h43.335v189.54H679.74v-78.57h-18.9V738.315z"/>
		<path d="M785.311,738.315h-43.336v-189.54h43.336V738.315z"/>
		<path d="M847.68,667.845v70.335h-43.335V548.775h48.735c43.335,0,58.185,13.5,58.185,59.534c0,46.035-13.5,59.535-58.185,59.535
			H847.68z M847.68,631.395h5.4c8.1,0,13.5-1.35,13.5-22.949c0-21.601-5.4-22.95-13.5-22.95h-5.4V631.395z"/>
		<path d="M1007.385,738.315H964.05v-189.54h43.335v74.385h18.9v-74.385h43.335v189.54h-43.335v-78.57h-18.9V738.315z"/>
		<path d="M1192.74,643.545c0,54.135,0,97.47-54.135,97.47c-54.136,0-54.136-43.335-54.136-97.47c0-53.055,0-97.47,54.136-97.47
			C1192.74,546.075,1192.74,590.49,1192.74,643.545z M1129.155,643.545c0,54.135,1.35,60.885,9.45,60.885
			c8.1,0,9.449-6.75,9.449-60.885s-1.35-60.885-9.449-60.885C1130.505,582.66,1129.155,589.41,1129.155,643.545z"/>
		<path d="M1250.925,667.845v70.335h-43.335V548.775h48.735c43.335,0,58.185,13.5,58.185,59.534c0,46.035-13.5,59.535-58.185,59.535
			H1250.925z M1250.925,631.395h5.4c8.1,0,13.5-1.35,13.5-22.949c0-21.601-5.4-22.95-13.5-22.95h-5.4V631.395z"/>
	</g>
</g>
</svg>
